<svg width="70" height="47" viewBox="0 0 70 47" fill="none" xmlns="http://www.w3.org/2000/svg">
<path d="M45.848 46.9034H0.180176V0H45.848V16.0478H43.731V2.17434H2.29502V44.7291H43.731V30.7508H45.848V46.9034Z" fill="white"/>
<path d="M9.5094 18.635H11.6309V22.7877L14.6667 18.635H17.2121L13.7258 23.0338L17.4895 28.1665H14.7999L11.6309 23.631V28.1665H9.5094V18.635Z" fill="white"/>
<path d="M23.022 26.2019C24.733 26.2019 25.6207 24.9597 25.6207 23.4007C25.6207 21.7095 24.4756 20.5995 23.022 20.5995C21.5307 20.5995 20.4256 21.7095 20.4256 23.4007C20.4256 24.9848 21.5818 26.2019 23.022 26.2019ZM23.022 18.6189C25.7627 18.6189 27.8088 20.4537 27.8088 23.4007C27.8088 26.2019 25.7627 28.1825 23.022 28.1825C20.2835 28.1825 18.2374 26.3454 18.2374 23.4007C18.2374 20.7181 20.1548 18.6189 23.022 18.6189Z" fill="white"/>
<path d="M36.7295 28.1661L32.3289 22.4476V28.1661H30.3383V18.6367H32.0359L36.4388 24.3803L36.4343 18.6367H38.4227L38.4271 28.1661H36.7295Z" fill="white"/>
<path d="M40.9795 18.635H48.6689V20.6771H45.8839V28.1665H43.7623V20.6771H40.9795V18.635Z" fill="white"/>
<path d="M58.9587 24.0661C58.9587 26.9788 57.1568 28.164 55.1684 28.164C52.7828 28.164 51.1251 26.7623 51.1251 23.9704V18.6394H53.2466V23.5077C53.2466 24.9914 53.6838 26.1219 55.1684 26.1219C56.4533 26.1219 56.8372 25.1555 56.8372 23.6308V18.6394H58.9587V24.0661Z" fill="white"/>
<path d="M63.6304 20.7089V22.8194H64.3983C65.2083 22.8194 65.8429 22.5185 65.8429 21.7163C65.8429 21.1852 65.5811 20.7066 64.5603 20.7066C64.2407 20.7066 64.0676 20.6952 63.6304 20.7089ZM61.5089 28.164V18.6394C62.026 18.6394 64.3983 18.6394 64.6646 18.6394C67.1966 18.6394 68.0976 19.9317 68.0976 21.6889C68.0976 23.4575 67.0369 24.18 66.5331 24.4399L69.2161 28.164H66.6441L64.4116 24.8615H63.6304V28.164H61.5089Z" fill="white"/>
</svg>
