<svg width="70" height="17" viewBox="0 0 70 17" fill="none" xmlns="http://www.w3.org/2000/svg">
<path d="M69.9472 5.73051C69.5179 6.41094 68.9138 6.99429 68.1829 7.43435C67.452 7.8744 66.6144 8.15903 65.7363 8.26574C63.9923 8.55165 62.2064 8.58299 60.4506 8.35849C58.7028 8.13421 56.977 7.79312 55.2883 7.3382C53.6429 6.82908 51.9592 6.42104 50.2493 6.11698C48.5527 5.82793 46.8037 5.87794 45.1322 6.26332C43.4607 6.64871 41.9096 7.35956 40.5941 8.34306C38.0197 10.4185 36.1841 13.1028 35.3084 16.0725L34.9913 17L34.6918 16.0725C33.8078 13.1058 31.9735 10.4235 29.4061 8.34306C28.0946 7.35888 26.5466 6.64743 24.8778 6.26195C23.2089 5.87648 21.4623 5.82694 19.7685 6.11698C18.0529 6.42102 16.3633 6.82905 14.7119 7.3382C13.0242 7.79641 11.2981 8.13756 9.54956 8.35849C7.79383 8.5827 6.00798 8.55137 4.26388 8.26574C3.38711 8.15558 2.55109 7.86956 1.82077 7.42986C1.09045 6.99016 0.485519 6.40866 0.0529554 5.73051C0.492439 6.38773 1.10004 6.94632 1.82778 7.36216C2.55552 7.778 3.38347 8.03969 4.24626 8.12661C5.99549 8.38874 7.78271 8.38874 9.53194 8.12661C11.2563 7.87911 12.958 7.52263 14.6238 7.05995C16.2853 6.5297 17.9867 6.101 19.7157 5.77688C21.4768 5.46245 23.296 5.50073 25.0379 5.88883C26.7797 6.27694 28.3994 7.00484 29.7761 8.01839C32.4604 10.1225 34.3991 12.8591 35.3613 15.9024L34.7446 15.9024C35.6995 12.8563 37.6393 10.118 40.3298 8.01839C41.7059 7.00385 43.3255 6.27529 45.0676 5.88713C46.8097 5.49898 48.6292 5.46131 50.3902 5.77688C52.1192 6.10101 53.8206 6.52971 55.4821 7.05995C57.1474 7.52437 58.8492 7.88089 60.574 8.12662C62.323 8.39054 64.1106 8.39054 65.8597 8.12662C66.7046 8.02838 67.5125 7.76127 68.2212 7.34584C68.9299 6.93041 69.5204 6.37777 69.9472 5.73051Z" fill="white"/>
<path d="M-4.89228e-07 11.1922C0.438186 10.5118 1.04919 9.92914 1.78559 9.48946C2.52199 9.04978 3.36397 8.76491 4.24616 8.65697C5.99608 8.40211 7.78192 8.40211 9.53184 8.65698C11.2804 8.8779 13.0065 9.21905 14.6942 9.67726C16.3455 10.1864 18.0351 10.5945 19.7508 10.8985C21.4433 11.1806 23.1863 11.1257 24.8513 10.7377C26.5164 10.3498 28.0608 9.63869 29.3708 8.65698C31.939 6.57709 33.7734 3.89455 34.6564 0.927532L34.956 -1.53182e-06L35.2731 0.927532C36.1568 3.87221 37.9925 6.52973 40.5588 8.57968C41.8707 9.56882 43.421 10.2844 45.0932 10.6726C46.7654 11.0608 48.5161 11.1116 50.2139 10.8212C51.9531 10.5186 53.6662 10.1105 55.3411 9.59997C57.0315 9.14729 58.7567 8.80115 60.5034 8.56422C62.2601 8.34483 64.046 8.38139 65.7891 8.67244C66.6651 8.77863 67.5011 9.0614 68.2317 9.49858C68.9623 9.93575 69.5675 10.5155 70 11.1922C69.5511 10.5324 68.9341 9.97263 68.1974 9.55692C67.4608 9.14121 66.6244 8.88081 65.7538 8.79611C64.004 8.54039 62.218 8.54039 60.4682 8.79611C58.7301 9.05552 57.0164 9.42755 55.3411 9.90915C53.6795 10.4394 51.9782 10.8681 50.2492 11.1922C48.4882 11.5078 46.6686 11.4701 44.9265 11.082C43.1844 10.6938 41.5648 9.96523 40.1888 8.9507C37.4928 6.85519 35.5518 4.11533 34.6036 1.06666L35.2202 1.06666C34.258 4.10997 32.3194 6.84657 29.635 8.9507C28.2583 9.96425 26.6387 10.6922 24.8968 11.0803C23.1549 11.4684 21.3357 11.5067 19.5746 11.1922C17.8456 10.8681 16.1443 10.4394 14.4828 9.90914C12.863 9.45216 11.2086 9.09573 9.53184 8.84248C7.78184 8.58846 5.99616 8.58846 4.24616 8.84248C3.38074 8.9232 2.54794 9.17699 1.81182 9.58435C1.07571 9.9917 0.455871 10.5418 -4.89228e-07 11.1922Z" fill="white"/>
</svg>
