<svg width="1169" height="19" viewBox="0 0 1169 19" fill="none" xmlns="http://www.w3.org/2000/svg">
<path d="M579.92 18.5099H579.57C578.94 18.5099 573.31 18.4199 569.46 11.5099C568.319 9.40447 566.796 7.52932 564.97 5.97989L564.74 5.7899C563.799 5.0234 562.68 4.50545 561.487 4.28355C560.294 4.06166 559.064 4.14293 557.91 4.5199C556.825 4.85958 555.844 5.46892 555.059 6.29091C554.274 7.11289 553.71 8.12066 553.42 9.21989C553.37 9.39765 553.33 9.57791 553.3 9.7599C553.146 10.5778 553.168 11.419 553.365 12.2277C553.561 13.0364 553.928 13.7939 554.44 14.4499C555.93 16.4499 557.92 17.3199 559.89 16.8699C560.768 16.6613 561.567 16.2027 562.19 15.5496C562.813 14.8965 563.233 14.0769 563.4 13.1899C563.482 12.7145 563.467 12.2274 563.355 11.7581C563.244 11.2889 563.038 10.8472 562.75 10.4599C562.424 9.91588 561.941 9.48331 561.364 9.21913C560.788 8.95495 560.145 8.87154 559.52 8.97989C559.016 9.10521 558.558 9.37403 558.203 9.75381C557.848 10.1336 557.611 10.6081 557.52 11.1199C557.466 11.3787 557.464 11.6456 557.514 11.9052C557.564 12.1649 557.665 12.412 557.811 12.6324C557.957 12.8528 558.145 13.0421 558.364 13.1892C558.584 13.3364 558.831 13.4386 559.09 13.4899L558.79 15.0199C557.861 14.8296 557.045 14.2783 556.522 13.4871C555.999 12.6959 555.811 11.7294 556 10.7999C556.153 9.98528 556.54 9.23287 557.114 8.63446C557.687 8.03605 558.423 7.61751 559.23 7.4299C560.15 7.25735 561.101 7.36419 561.96 7.73666C562.819 8.10914 563.547 8.7302 564.05 9.5199C564.468 10.0772 564.766 10.7149 564.926 11.3928C565.086 12.0708 565.105 12.7745 564.98 13.4599C564.76 14.644 564.201 15.7386 563.37 16.6103C562.539 17.4821 561.472 18.0934 560.3 18.3699C557.73 18.9599 555.09 17.8399 553.24 15.3699C552.596 14.5405 552.136 13.5839 551.89 12.5634C551.643 11.5429 551.616 10.4817 551.81 9.44989C551.81 9.22989 551.9 9.0099 551.96 8.7999C552.312 7.44644 553.004 6.20528 553.97 5.19385C554.936 4.18242 556.144 3.43416 557.48 3.0199C558.882 2.55946 560.376 2.45919 561.827 2.72832C563.277 2.99745 564.637 3.62731 565.78 4.55989L565.99 4.72989C567.982 6.40318 569.638 8.43919 570.87 10.7299C574.42 17.1199 579.55 16.9699 579.6 16.9699H579.7C580.136 17.005 580.574 16.9533 580.989 16.8176C581.405 16.682 581.789 16.4653 582.12 16.1799C582.467 15.886 582.752 15.5259 582.958 15.1207C583.164 14.7155 583.287 14.2733 583.32 13.8199C583.384 13.1387 583.176 12.4598 582.742 11.9315C582.307 11.4031 581.681 11.0682 581 10.9999C580.744 10.986 580.488 11.026 580.249 11.1173C580.009 11.2086 579.792 11.3491 579.61 11.5299C579.347 11.7436 579.153 12.0307 579.053 12.3547C578.954 12.6788 578.952 13.0252 579.05 13.3499C579.136 13.5932 579.29 13.8066 579.494 13.9645C579.698 14.1223 579.943 14.218 580.2 14.2399L580 15.7999C579.445 15.7496 578.917 15.5422 578.476 15.2022C578.035 14.8621 577.7 14.4035 577.51 13.8799C577.307 13.2733 577.287 12.6201 577.455 12.0026C577.622 11.385 577.968 10.8309 578.45 10.4099C578.789 10.0649 579.199 9.79698 579.651 9.62442C580.103 9.45186 580.587 9.3787 581.07 9.4099C582.151 9.51896 583.146 10.0466 583.844 10.8801C584.541 11.7135 584.884 12.7866 584.8 13.8699C584.751 14.5282 584.572 15.1702 584.273 15.7589C583.974 16.3476 583.562 16.8713 583.06 17.2999C582.189 18.062 581.077 18.4907 579.92 18.5099Z" fill="#1A1A1A"/>
<path d="M588.19 18.51C587.031 18.5111 585.909 18.0959 585.03 17.34C584.528 16.9114 584.116 16.3877 583.817 15.799C583.518 15.2103 583.339 14.5683 583.29 13.91C583.201 12.8272 583.541 11.7526 584.237 10.9183C584.933 10.0839 585.929 9.55654 587.01 9.44999C587.495 9.41733 587.98 9.48978 588.434 9.66238C588.888 9.83498 589.3 10.1036 589.64 10.45C590.117 10.8741 590.461 11.4283 590.628 12.0447C590.795 12.6612 590.778 13.3129 590.58 13.92C590.39 14.445 590.053 14.9047 589.61 15.2448C589.167 15.585 588.636 15.7915 588.08 15.84L587.95 14.28C588.208 14.2587 588.455 14.1635 588.661 14.0056C588.867 13.8478 589.023 13.6341 589.11 13.39C589.205 13.0642 589.202 12.7176 589.1 12.3938C588.999 12.0699 588.804 11.7833 588.54 11.57C588.358 11.3893 588.141 11.2487 587.901 11.1574C587.662 11.0661 587.406 11.0261 587.15 11.04C586.479 11.1133 585.862 11.446 585.433 11.9672C585.003 12.4884 584.794 13.1569 584.85 13.83C584.881 14.2828 585.003 14.7247 585.207 15.13C585.411 15.5352 585.695 15.8956 586.04 16.19C586.371 16.4754 586.755 16.6921 587.171 16.8277C587.586 16.9634 588.024 17.0151 588.46 16.98H588.56C588.77 16.98 593.77 17.09 597.29 10.74C598.533 8.44781 600.199 6.41189 602.2 4.74L602.39 4.57999C603.531 3.64745 604.889 3.0175 606.338 2.74834C607.787 2.47918 609.28 2.5795 610.68 3.04C612.017 3.45366 613.227 4.20153 614.194 5.21293C615.162 6.22432 615.856 7.46581 616.21 8.82C616.21 9.03 616.31 9.25 616.35 9.46C616.546 10.4926 616.521 11.5552 616.276 12.5774C616.032 13.5996 615.573 14.5582 614.93 15.39C613.07 17.86 610.43 18.99 607.87 18.39C606.698 18.1117 605.631 17.5 604.799 16.6287C603.966 15.7575 603.404 14.6638 603.18 13.48C603.055 12.7946 603.073 12.0908 603.233 11.4127C603.393 10.7347 603.692 10.0971 604.11 9.54C604.616 8.75047 605.345 8.1298 606.206 7.75747C607.066 7.38514 608.018 7.27807 608.94 7.44999C609.747 7.63759 610.483 8.05613 611.056 8.65455C611.63 9.25296 612.017 10.0054 612.17 10.82C612.35 11.7477 612.157 12.7089 611.633 13.4952C611.109 14.2815 610.296 14.8293 609.37 15.02L609.07 13.49C609.328 13.4376 609.574 13.3346 609.792 13.1869C610.011 13.0392 610.198 12.8498 610.343 12.6295C610.488 12.4093 610.588 12.1625 610.637 11.9034C610.687 11.6444 610.684 11.3781 610.63 11.12C610.54 10.6077 610.303 10.1326 609.948 9.75259C609.593 9.3726 609.135 9.10415 608.63 8.97999C608.007 8.87378 607.366 8.95826 606.791 9.22233C606.217 9.4864 605.735 9.91778 605.41 10.46C605.12 10.8459 604.912 11.2875 604.8 11.7572C604.688 12.2269 604.675 12.7147 604.76 13.19C604.925 14.0762 605.343 14.8955 605.965 15.5487C606.586 16.2019 607.383 16.6608 608.26 16.87C610.26 17.33 612.26 16.44 613.72 14.45C614.23 13.7928 614.595 13.0352 614.792 12.2269C614.988 11.4186 615.011 10.5779 614.86 9.76L614.74 9.21999C614.45 8.1192 613.885 7.11024 613.098 6.28803C612.311 5.46582 611.327 4.85739 610.24 4.52C609.086 4.14395 607.856 4.06317 606.663 4.28503C605.47 4.50689 604.352 5.02432 603.41 5.79L603.2 5.96C601.367 7.51944 599.838 9.40447 598.69 11.52C594.84 18.46 589.23 18.57 588.59 18.52L588.19 18.51Z" fill="#1A1A1A"/>
<path d="M584.06 9.8C583.464 9.80569 582.885 9.5982 582.429 9.21498C581.972 8.83176 581.668 8.29802 581.57 7.71001C581.01 4.82001 583.3 1.16 583.4 1L584.06 0L584.72 1C584.82 1.16 587.1 4.82001 586.54 7.71001C586.444 8.29719 586.142 8.83077 585.687 9.21414C585.232 9.59751 584.655 9.80534 584.06 9.8ZM583.11 7.41C583.176 7.61007 583.303 7.78428 583.474 7.90778C583.644 8.03127 583.849 8.09775 584.06 8.09775C584.271 8.09775 584.476 8.03127 584.646 7.90778C584.817 7.78428 584.944 7.61007 585.01 7.41C585.116 5.90216 584.786 4.39561 584.06 3.07001C583.329 4.39379 582.999 5.90179 583.11 7.41Z" fill="#1A1A1A"/>
<path d="M1162.38 11.8C1162.04 11.8037 1161.71 11.7735 1161.38 11.71C1160.81 11.5845 1160.3 11.2683 1159.93 10.8136C1159.57 10.359 1159.37 9.79327 1159.37 9.21004C1159.37 8.62681 1159.57 8.06106 1159.93 7.60643C1160.3 7.15181 1160.81 6.83557 1161.38 6.71004C1164.23 6.13004 1167.85 8.46003 1168 8.56003L1169 9.22004L1168 9.87005C1166.31 10.9612 1164.38 11.6237 1162.38 11.8ZM1161.73 8.22004C1161.46 8.22004 1161.21 8.32539 1161.02 8.51293C1160.83 8.70046 1160.73 8.95482 1160.73 9.22004C1160.73 9.48525 1160.83 9.73961 1161.02 9.92714C1161.21 10.1147 1161.46 10.22 1161.73 10.22C1163.23 10.3128 1164.72 9.96512 1166.02 9.22004C1164.72 8.47495 1163.23 8.12732 1161.73 8.22004Z" fill="#1A1A1A"/>
<path d="M1156.44 9.99989H1156.24C1155.76 9.99989 1152.87 9.84989 1150.91 6.29989C1150.36 5.30365 1149.64 4.41563 1148.78 3.6799L1148.66 3.57989C1148.24 3.24411 1147.75 3.01702 1147.23 2.91923C1146.71 2.82144 1146.17 2.85603 1145.66 3.01989C1145.18 3.16191 1144.74 3.42617 1144.39 3.78709C1144.04 4.14801 1143.79 4.59333 1143.66 5.07989L1143.6 5.3199C1143.54 5.66969 1143.55 6.02842 1143.64 6.3729C1143.72 6.71739 1143.88 7.04 1144.1 7.3199C1144.33 7.70519 1144.68 8.01128 1145.09 8.1985C1145.5 8.38572 1145.95 8.44544 1146.4 8.3699C1146.76 8.2831 1147.09 8.09326 1147.34 7.82345C1147.6 7.55364 1147.77 7.21544 1147.84 6.84989C1147.87 6.67496 1147.86 6.49627 1147.82 6.32447C1147.77 6.15268 1147.7 5.99129 1147.59 5.84989C1147.47 5.64073 1147.3 5.47206 1147.08 5.36657C1146.87 5.26109 1146.63 5.22386 1146.39 5.2599C1146.21 5.30195 1146.05 5.39538 1145.92 5.52865C1145.8 5.66193 1145.71 5.82922 1145.68 6.0099C1145.65 6.16739 1145.68 6.33035 1145.77 6.46459C1145.86 6.59884 1145.99 6.69392 1146.15 6.72988L1145.85 8.2599C1145.57 8.20489 1145.31 8.09553 1145.07 7.93808C1144.83 7.78062 1144.63 7.57815 1144.47 7.34225C1144.31 7.10635 1144.2 6.84165 1144.15 6.56327C1144.09 6.2849 1144.09 5.9983 1144.15 5.71989C1144.23 5.23637 1144.46 4.78857 1144.8 4.43273C1145.13 4.07689 1145.57 3.82889 1146.05 3.71989C1146.58 3.61802 1147.13 3.67678 1147.63 3.8887C1148.13 4.10061 1148.55 4.45609 1148.85 4.90989C1149.09 5.23035 1149.26 5.59625 1149.35 5.98497C1149.44 6.37368 1149.45 6.77696 1149.38 7.16989C1149.25 7.83232 1148.94 8.44453 1148.48 8.93254C1148.01 9.42054 1147.41 9.76346 1146.76 9.91989C1146.02 10.066 1145.25 9.98802 1144.55 9.69592C1143.86 9.40382 1143.26 8.91083 1142.85 8.27989C1142.5 7.82302 1142.25 7.29763 1142.11 6.73776C1141.98 6.17789 1141.96 5.59602 1142.07 5.02989C1142.07 4.91989 1142.12 4.79989 1142.15 4.68989C1142.34 3.95488 1142.72 3.28088 1143.24 2.73027C1143.77 2.17965 1144.42 1.77024 1145.15 1.5399C1145.91 1.29221 1146.72 1.23932 1147.5 1.3861C1148.29 1.53289 1149.02 1.87464 1149.64 2.37989L1149.74 2.4599C1150.76 3.32667 1151.62 4.37409 1152.26 5.54989C1152.58 6.22899 1153.04 6.83119 1153.62 7.31591C1154.19 7.80063 1154.87 8.15661 1155.59 8.35989C1155.26 8.14162 1155.02 7.82683 1154.88 7.4599C1154.75 7.08766 1154.74 6.68608 1154.84 6.30543C1154.94 5.92478 1155.15 5.58196 1155.44 5.3199C1155.65 5.11277 1155.9 4.95301 1156.18 4.85127C1156.46 4.74953 1156.75 4.70814 1157.05 4.72988C1157.69 4.79333 1158.28 5.1053 1158.69 5.59884C1159.11 6.09239 1159.31 6.72821 1159.26 7.3699C1159.21 8.0863 1158.89 8.75661 1158.36 9.2476C1157.84 9.73859 1157.15 10.0143 1156.43 10.0199L1156.44 9.99989ZM1156.89 6.26989C1156.76 6.27384 1156.63 6.32743 1156.54 6.41989C1156.47 6.4763 1156.41 6.55223 1156.38 6.63893C1156.35 6.72562 1156.34 6.81955 1156.36 6.90989C1156.38 6.95815 1156.41 7.00049 1156.45 7.03225C1156.49 7.06401 1156.54 7.08395 1156.59 7.08988L1156.49 8.4299C1156.77 8.42088 1157.04 8.31499 1157.26 8.12989C1157.52 7.89909 1157.68 7.57666 1157.71 7.22988C1157.73 7.1119 1157.72 6.99175 1157.69 6.8767C1157.66 6.76166 1157.6 6.65413 1157.53 6.56062C1157.45 6.46711 1157.36 6.38958 1157.26 6.33273C1157.15 6.27588 1157.04 6.24089 1156.92 6.22988L1156.89 6.26989Z" fill="#1A1A1A"/>
<path d="M1146.64 17.14C1146.14 17.1386 1145.64 17.0576 1145.16 16.9001C1144.43 16.6715 1143.78 16.2638 1143.26 15.7149C1142.73 15.166 1142.35 14.4936 1142.16 13.7601C1142.13 13.6448 1142.1 13.528 1142.08 13.4101C1141.98 12.8439 1141.99 12.2623 1142.13 11.7026C1142.26 11.1429 1142.51 10.6175 1142.86 10.1601C1143.28 9.53092 1143.87 9.03995 1144.57 8.74967C1145.26 8.45938 1146.03 8.38293 1146.77 8.53005C1147.42 8.68226 1148.02 9.02259 1148.49 9.50929C1148.95 9.996 1149.27 10.6079 1149.39 11.2701C1149.46 11.6646 1149.44 12.0688 1149.35 12.4586C1149.26 12.8485 1149.09 13.2162 1148.86 13.5401C1148.56 13.993 1148.14 14.3473 1147.64 14.5575C1147.14 14.7677 1146.59 14.8243 1146.06 14.72C1145.58 14.6098 1145.15 14.3615 1144.81 14.0058C1144.47 13.6502 1144.24 13.203 1144.16 12.72C1144.05 12.1565 1144.16 11.5717 1144.48 11.0936C1144.8 10.6156 1145.3 10.2835 1145.86 10.17L1146.16 11.7101C1146 11.7437 1145.86 11.8383 1145.78 11.9732C1145.69 12.1081 1145.66 12.2723 1145.69 12.4301C1145.72 12.6107 1145.81 12.778 1145.93 12.9113C1146.06 13.0446 1146.22 13.138 1146.4 13.1801C1146.64 13.2147 1146.88 13.1768 1147.09 13.0714C1147.3 12.9661 1147.48 12.7982 1147.6 12.59C1147.71 12.4487 1147.78 12.2873 1147.83 12.1155C1147.87 11.9437 1147.88 11.765 1147.85 11.59C1147.78 11.224 1147.61 10.8852 1147.36 10.6151C1147.1 10.3451 1146.77 10.1557 1146.41 10.0701C1145.96 9.99451 1145.51 10.0542 1145.1 10.2414C1144.69 10.4287 1144.34 10.7348 1144.11 11.1201C1143.89 11.4 1143.73 11.7226 1143.65 12.067C1143.56 12.4115 1143.55 12.7703 1143.61 13.1201L1143.67 13.36C1143.8 13.8466 1144.05 14.2919 1144.4 14.6528C1144.75 15.0138 1145.19 15.278 1145.67 15.42C1146.18 15.5839 1146.72 15.6185 1147.24 15.5207C1147.76 15.4229 1148.25 15.1958 1148.67 14.86L1148.77 14.7701C1149.64 14.031 1150.37 13.1358 1150.92 12.1301C1152.92 8.57005 1155.8 8.46005 1156.27 8.44005C1156.63 8.41237 1156.99 8.4574 1157.34 8.57248C1157.68 8.68756 1158 8.87035 1158.27 9.11005C1158.56 9.35878 1158.8 9.66417 1158.97 10.0079C1159.15 10.3516 1159.25 10.7265 1159.27 11.11C1159.32 11.7512 1159.11 12.3856 1158.7 12.8785C1158.29 13.3715 1157.7 13.6841 1157.06 13.75C1156.76 13.7718 1156.47 13.7304 1156.19 13.6287C1155.91 13.5269 1155.66 13.3672 1155.45 13.1601C1155.16 12.898 1154.95 12.5552 1154.85 12.1745C1154.75 11.7939 1154.76 11.3923 1154.89 11.0201C1155.02 10.6501 1155.27 10.3319 1155.6 10.11C1154.88 10.3133 1154.2 10.6693 1153.63 11.154C1153.05 11.6388 1152.59 12.2409 1152.27 12.92C1151.63 14.107 1150.76 15.1621 1149.73 16.03L1149.65 16.1001C1148.79 16.7792 1147.73 17.146 1146.64 17.14ZM1156.49 9.99005L1156.59 11.34C1156.54 11.346 1156.49 11.3659 1156.45 11.3977C1156.41 11.4294 1156.38 11.4718 1156.36 11.5201C1156.34 11.6104 1156.35 11.7043 1156.38 11.791C1156.41 11.8777 1156.47 11.9536 1156.54 12.0101C1156.64 12.1094 1156.78 12.1633 1156.93 12.1601C1157.05 12.1478 1157.16 12.1119 1157.26 12.0545C1157.37 11.9971 1157.46 11.9194 1157.53 11.826C1157.6 11.7326 1157.66 11.6255 1157.69 11.5111C1157.72 11.3967 1157.73 11.2773 1157.71 11.1601C1157.7 10.9878 1157.65 10.8196 1157.57 10.6651C1157.5 10.5107 1157.39 10.373 1157.26 10.2601C1157.04 10.0865 1156.77 9.99139 1156.49 9.99005Z" fill="#1A1A1A"/>
<path d="M1144 9H616V10H1144V9Z" fill="#1A1A1A"/>
<path d="M6.67 11.8C4.64888 11.6311 2.70097 10.9646 1 9.86003L0 9.21004L1 8.55004C1.15 8.45004 4.76 6.12003 7.62 6.70003C8.18956 6.82556 8.69918 7.14181 9.06452 7.59644C9.42985 8.05106 9.629 8.6168 9.629 9.20003C9.629 9.78326 9.42985 10.349 9.06452 10.8036C8.69918 11.2583 8.18956 11.5745 7.62 11.7C7.30725 11.7636 6.98913 11.7971 6.67 11.8ZM3 9.21004C4.30211 9.95403 5.79313 10.3016 7.29 10.21C7.55522 10.21 7.80957 10.1047 7.99711 9.91715C8.18464 9.72961 8.29 9.47526 8.29 9.21004C8.29 8.94482 8.18464 8.69047 7.99711 8.50293C7.80957 8.3154 7.55522 8.21004 7.29 8.21004C5.79313 8.1185 4.30211 8.46606 3 9.21004Z" fill="#1A1A1A"/>
<path d="M12.61 10.0001C11.9413 9.99968 11.2951 9.75827 10.79 9.32008C10.4971 9.07135 10.2575 8.76594 10.0856 8.42224C9.91377 8.07854 9.8132 7.70365 9.78996 7.32008C9.73697 6.6794 9.93792 6.04355 10.3495 5.54968C10.761 5.05581 11.3502 4.7435 11.99 4.68008C12.2846 4.66088 12.58 4.70344 12.8573 4.80504C13.1345 4.90664 13.3875 5.06504 13.6 5.27008C13.8952 5.53098 14.1068 5.87326 14.2082 6.25398C14.3096 6.6347 14.2963 7.03689 14.17 7.41008C14.0333 7.77701 13.785 8.0918 13.46 8.31007C14.1814 8.10783 14.851 7.75325 15.4237 7.27023C15.9964 6.78722 16.4589 6.18702 16.78 5.51009C17.4238 4.32309 18.2855 3.26802 19.32 2.40009L19.41 2.33008C20.0279 1.82482 20.763 1.48309 21.5476 1.3363C22.3322 1.18952 23.1411 1.2424 23.9 1.49008C24.6237 1.72206 25.2776 2.13203 25.8018 2.68239C26.3259 3.23275 26.7035 3.90588 26.9 4.64008C26.9 4.75008 26.95 4.87007 26.98 4.98007C27.0823 5.54627 27.0659 6.12758 26.9316 6.68707C26.7973 7.24657 26.5482 7.77202 26.2 8.23007C25.784 8.86003 25.1903 9.35224 24.4942 9.64423C23.798 9.93621 23.0308 10.0148 22.29 9.87009C21.6343 9.71366 21.038 9.37073 20.5731 8.88272C20.1081 8.39471 19.7945 7.78252 19.67 7.12009C19.5967 6.72722 19.6059 6.3234 19.6972 5.93431C19.7884 5.54523 19.9596 5.17939 20.2 4.86008C20.4989 4.41075 20.9248 4.06052 21.4234 3.85396C21.922 3.64739 22.4708 3.59382 23 3.70007C23.4774 3.81147 23.9117 4.06025 24.2494 4.41566C24.587 4.77108 24.8132 5.21758 24.9 5.70007C25.0062 6.2618 24.8876 6.84279 24.5696 7.31789C24.2517 7.79298 23.7598 8.12417 23.2 8.24008L22.9 6.71008C22.9777 6.69352 23.0514 6.66166 23.1167 6.61638C23.1821 6.57109 23.2377 6.51328 23.2805 6.44629C23.3233 6.3793 23.3524 6.30447 23.366 6.22615C23.3797 6.14783 23.3776 6.06759 23.36 5.99008C23.3277 5.80941 23.2434 5.64211 23.1172 5.50883C22.991 5.37556 22.8286 5.28214 22.65 5.24008C22.4137 5.20548 22.1726 5.24335 21.9583 5.34869C21.7441 5.45403 21.5668 5.62188 21.45 5.83008C21.2386 6.11769 21.1489 6.47685 21.2 6.83008C21.2695 7.19463 21.4421 7.53161 21.6973 7.80103C21.9525 8.07044 22.2797 8.261 22.64 8.35008C23.0903 8.43859 23.557 8.38849 23.9783 8.20639C24.3996 8.02429 24.7558 7.71876 25 7.33008C25.2173 7.04969 25.3732 6.72674 25.4576 6.38219C25.5421 6.03763 25.5531 5.67917 25.49 5.33008C25.4782 5.24913 25.4615 5.16897 25.44 5.09007C25.3123 4.60351 25.061 4.1582 24.7106 3.79729C24.3602 3.43637 23.9225 3.17209 23.44 3.03007C22.9329 2.8653 22.3927 2.83023 21.8686 2.92805C21.3446 3.02588 20.8534 3.25348 20.44 3.59007L20.33 3.67007C19.4591 4.41365 18.7335 5.31215 18.19 6.32008C16.19 9.88008 13.33 10.0301 12.84 10.0101L12.61 10.0001ZM12.16 6.27008C12.0418 6.28243 11.9274 6.31829 11.8233 6.37556C11.7193 6.43283 11.6278 6.51035 11.5542 6.60355C11.4805 6.69674 11.4263 6.80373 11.3947 6.9182C11.363 7.03267 11.3546 7.15231 11.37 7.27008C11.3838 7.44296 11.4315 7.61143 11.5104 7.76585C11.5893 7.92028 11.6979 8.05763 11.83 8.17007C12.0448 8.35517 12.3165 8.46106 12.6 8.47008L12.49 7.13008C12.5429 7.12593 12.5936 7.10681 12.6361 7.07494C12.6786 7.04306 12.7111 6.99975 12.73 6.95007C12.7481 6.85879 12.7399 6.76422 12.7062 6.67744C12.6726 6.59067 12.6149 6.51528 12.54 6.46008C12.4945 6.40245 12.4368 6.35555 12.3711 6.32271C12.3055 6.28987 12.2334 6.2719 12.16 6.27008Z" fill="#1A1A1A"/>
<path d="M22.41 17.1399C21.3166 17.1391 20.257 16.7612 19.41 16.0699L19.31 15.9799C18.2774 15.1231 17.4215 14.0736 16.79 12.8899C16.4642 12.2134 15.9991 11.6133 15.4252 11.1291C14.8513 10.6448 14.1816 10.2873 13.46 10.0799C13.7857 10.3018 14.034 10.62 14.17 10.9899C14.2963 11.3631 14.3096 11.7653 14.2082 12.146C14.1068 12.5267 13.8952 12.869 13.6 13.1299C13.389 13.337 13.1362 13.4968 12.8586 13.5985C12.581 13.7003 12.2848 13.7416 11.99 13.7199C11.3502 13.6565 10.761 13.3442 10.3495 12.8503C9.93792 12.3564 9.73697 11.7206 9.78996 11.0799C9.81206 10.6961 9.91212 10.3208 10.0841 9.97695C10.256 9.63309 10.4962 9.32786 10.79 9.0799C11.0625 8.84163 11.3796 8.65974 11.7229 8.54474C12.0662 8.42974 12.4289 8.38391 12.79 8.4099C13.28 8.4099 16.17 8.5599 18.13 12.0999C18.6693 13.1251 19.395 14.0407 20.27 14.7999L20.4 14.8999C20.8134 15.2365 21.3046 15.4641 21.8286 15.5619C22.3527 15.6598 22.8929 15.6247 23.4 15.4599C23.8825 15.3179 24.3202 15.0536 24.6706 14.6927C25.021 14.3318 25.2723 13.8865 25.4 13.3999C25.4215 13.321 25.4382 13.2408 25.45 13.1599C25.5131 12.8108 25.5021 12.4523 25.4176 12.1078C25.3332 11.7632 25.1773 11.4403 24.96 11.1599C24.7232 10.7748 24.3769 10.4691 23.9654 10.282C23.5538 10.0949 23.0958 10.035 22.65 10.1099C22.2886 10.1967 21.9601 10.3865 21.7045 10.6563C21.4489 10.9261 21.2771 11.2644 21.21 11.6299C21.1588 11.9831 21.2486 12.3423 21.46 12.6299C21.5789 12.8362 21.7565 13.0025 21.9702 13.1075C22.1839 13.2126 22.424 13.2517 22.66 13.2199C22.8386 13.1778 23.001 13.0844 23.1272 12.9511C23.2534 12.8179 23.3377 12.6506 23.37 12.4699C23.3876 12.3924 23.3897 12.3121 23.376 12.2338C23.3624 12.1555 23.3333 12.0807 23.2905 12.0137C23.2477 11.9467 23.1921 11.8889 23.1267 11.8436C23.0614 11.7983 22.9877 11.7665 22.91 11.7499L23.21 10.2099C23.7706 10.3281 24.2625 10.6613 24.5803 11.138C24.8981 11.6147 25.0165 12.197 24.91 12.7599C24.8232 13.2424 24.597 13.6889 24.2594 14.0443C23.9217 14.3997 23.4874 14.6485 23.01 14.7599C22.4788 14.8655 21.9281 14.8096 21.429 14.5992C20.9299 14.3889 20.5053 14.0339 20.21 13.5799C19.9699 13.2585 19.7989 12.8909 19.7077 12.5003C19.6165 12.1097 19.6071 11.7044 19.68 11.3099C19.8027 10.6478 20.1159 10.0358 20.5813 9.54914C21.0467 9.06243 21.644 8.72212 22.3 8.5699C23.0398 8.4255 23.8058 8.50321 24.5016 8.79326C25.1974 9.08331 25.7918 9.57273 26.21 10.1999C26.5571 10.6585 26.8056 11.184 26.9398 11.7433C27.074 12.3026 27.0911 12.8837 26.99 13.4499C26.99 13.5699 26.94 13.6899 26.91 13.7999C26.7129 14.5327 26.3349 15.2042 25.8108 15.7528C25.2866 16.3015 24.633 16.7097 23.91 16.9399C23.4237 17.0856 22.9174 17.1531 22.41 17.1399ZM12.57 9.9899C12.2875 10.0035 12.0172 10.1088 11.8 10.2899C11.6668 10.4035 11.5575 10.5425 11.4785 10.6987C11.3996 10.8549 11.3525 11.0253 11.34 11.1999C11.3246 11.3177 11.333 11.4373 11.3647 11.5518C11.3963 11.6663 11.4505 11.7733 11.5242 11.8664C11.5978 11.9596 11.6893 12.0371 11.7933 12.0944C11.8974 12.1517 12.0118 12.1875 12.13 12.1999C12.2001 12.2013 12.2698 12.1887 12.335 12.163C12.4002 12.1372 12.4597 12.0988 12.51 12.0499C12.5849 11.9947 12.6426 11.9193 12.6762 11.8325C12.7099 11.7457 12.7181 11.6512 12.7 11.5599C12.6811 11.5102 12.6486 11.4669 12.6061 11.435C12.5636 11.4032 12.5129 11.384 12.46 11.3799L12.57 9.9899Z" fill="#1A1A1A"/>
<path d="M552 9H25V10H552V9Z" fill="#1A1A1A"/>
</svg>
